<svg xmlns="http://www.w3.org/2000/svg" xmlns:xlink="http://www.w3.org/1999/xlink" contentStyleType="text/css" height="968px" preserveAspectRatio="none" style="width:702px;height:968px;background:#FFFFFF;" version="1.1" viewBox="0 0 702 968" width="702px" zoomAndPan="magnify"><defs/><g><!--cluster geiger_counter--><g id="cluster_geiger_counter"><rect fill="none" height="649.34" rx="2.5" ry="2.5" style="stroke:#181818;stroke-width:1.0;" width="529" x="7" y="133.59"/><rect fill="none" height="10" style="stroke:#181818;stroke-width:1.0;" width="15" x="516" y="138.59"/><rect fill="none" height="2" style="stroke:#181818;stroke-width:1.0;" width="4" x="514" y="140.59"/><rect fill="none" height="2" style="stroke:#181818;stroke-width:1.0;" width="4" x="514" y="144.59"/><text fill="#000000" font-family="sans-serif" font-size="14" font-weight="bold" lengthAdjust="spacing" textLength="175.7041" x="183.6479" y="159.5851">Geiger-Muller Counter</text></g><!--entity gm_tube--><g id="elem_gm_tube"><rect fill="#F1F1F1" height="39.2969" rx="2.5" ry="2.5" style="stroke:#181818;stroke-width:0.5;" width="147.9609" x="77.02" y="184.74"/><polygon fill="#F1F1F1" points="207.9809,189.74,207.9809,203.74,219.9809,203.74,219.9809,195.74,213.9809,189.74,207.9809,189.74" style="stroke:#181818;stroke-width:0.5;"/><line style="stroke:#181818;stroke-width:0.5;" x1="213.9809" x2="213.9809" y1="189.74" y2="195.74"/><line style="stroke:#181818;stroke-width:0.5;" x1="219.9809" x2="213.9809" y1="195.74" y2="195.74"/><text fill="#000000" font-family="sans-serif" font-size="14" lengthAdjust="spacing" textLength="117.9609" x="87.02" y="210.7351">GM Tube (STS-5)</text></g><!--entity polarization--><g id="elem_polarization"><rect fill="#F1F1F1" height="55.5938" rx="2.5" ry="2.5" style="stroke:#181818;stroke-width:0.5;" width="178.6201" x="259.69" y="176.59"/><polygon fill="#F1F1F1" points="421.3101,181.59,421.3101,195.59,433.3101,195.59,433.3101,187.59,427.3101,181.59,421.3101,181.59" style="stroke:#181818;stroke-width:0.5;"/><line style="stroke:#181818;stroke-width:0.5;" x1="427.3101" x2="427.3101" y1="181.59" y2="187.59"/><line style="stroke:#181818;stroke-width:0.5;" x1="433.3101" x2="427.3101" y1="187.59" y2="187.59"/><text fill="#000000" font-family="sans-serif" font-size="14" lengthAdjust="spacing" textLength="148.6201" x="269.69" y="202.5851">GM Tube Polarization</text><text fill="#000000" font-family="sans-serif" font-size="14" lengthAdjust="spacing" textLength="147.5195" x="269.69" y="218.882">(400V DC, MC34063)</text></g><!--entity comparator--><g id="elem_comparator"><rect fill="#F1F1F1" height="39.2969" rx="2.5" ry="2.5" style="stroke:#181818;stroke-width:0.5;" width="175.5645" x="39.22" y="425.48"/><polygon fill="#F1F1F1" points="197.7845,430.48,197.7845,444.48,209.7845,444.48,209.7845,436.48,203.7845,430.48,197.7845,430.48" style="stroke:#181818;stroke-width:0.5;"/><line style="stroke:#181818;stroke-width:0.5;" x1="203.7845" x2="203.7845" y1="430.48" y2="436.48"/><line style="stroke:#181818;stroke-width:0.5;" x1="209.7845" x2="203.7845" y1="436.48" y2="436.48"/><text fill="#000000" font-family="sans-serif" font-size="14" lengthAdjust="spacing" textLength="145.5645" x="49.22" y="451.4751">Comparator (LM358)</text></g><!--entity r_sense--><g id="elem_r_sense"><rect fill="#F1F1F1" height="39.2969" rx="2.5" ry="2.5" style="stroke:#181818;stroke-width:0.5;" width="166.083" x="67.96" y="309.18"/><polygon fill="#F1F1F1" points="217.043,314.18,217.043,328.18,229.043,328.18,229.043,320.18,223.043,314.18,217.043,314.18" style="stroke:#181818;stroke-width:0.5;"/><line style="stroke:#181818;stroke-width:0.5;" x1="223.043" x2="223.043" y1="314.18" y2="320.18"/><line style="stroke:#181818;stroke-width:0.5;" x1="229.043" x2="223.043" y1="320.18" y2="320.18"/><text fill="#000000" font-family="sans-serif" font-size="14" lengthAdjust="spacing" textLength="136.083" x="77.96" y="335.1751">Shunt Resistor (R7)</text></g><!--entity led--><g id="elem_led"><rect fill="#F1F1F1" height="39.2969" rx="2.5" ry="2.5" style="stroke:#181818;stroke-width:0.5;" width="92.4873" x="365.76" y="425.48"/><polygon fill="#F1F1F1" points="441.2473,430.48,441.2473,444.48,453.2473,444.48,453.2473,436.48,447.2473,430.48,441.2473,430.48" style="stroke:#181818;stroke-width:0.5;"/><line style="stroke:#181818;stroke-width:0.5;" x1="447.2473" x2="447.2473" y1="430.48" y2="436.48"/><line style="stroke:#181818;stroke-width:0.5;" x1="453.2473" x2="447.2473" y1="436.48" y2="436.48"/><text fill="#000000" font-family="sans-serif" font-size="14" lengthAdjust="spacing" textLength="62.4873" x="375.76" y="451.4751">LED (D4)</text></g><!--entity out_level_selector--><g id="elem_out_level_selector"><rect fill="#F1F1F1" height="55.5938" rx="2.5" ry="2.5" style="stroke:#181818;stroke-width:0.5;" width="240.2939" x="30.85" y="542.98"/><polygon fill="#F1F1F1" points="254.1439,547.98,254.1439,561.98,266.1439,561.98,266.1439,553.98,260.1439,547.98,254.1439,547.98" style="stroke:#181818;stroke-width:0.5;"/><line style="stroke:#181818;stroke-width:0.5;" x1="260.1439" x2="260.1439" y1="547.98" y2="553.98"/><line style="stroke:#181818;stroke-width:0.5;" x1="266.1439" x2="260.1439" y1="553.98" y2="553.98"/><text fill="#000000" font-family="sans-serif" font-size="14" lengthAdjust="spacing" textLength="210.2939" x="40.85" y="568.9751">Output Voltage Level Selector</text><text fill="#000000" font-family="sans-serif" font-size="14" lengthAdjust="spacing" textLength="89.2295" x="40.85" y="585.272">(Q4, R13, J3)</text></g><!--entity digital_outoput--><g id="elem_digital_outoput"><ellipse cx="217" cy="729.93" fill="#F1F1F1" rx="8" ry="8" style="stroke:#181818;stroke-width:0.5;"/><text fill="#000000" font-family="sans-serif" font-size="14" lengthAdjust="spacing" textLength="166.0039" x="133.998" y="759.9251">Pulse Digital output (J3)</text></g><!--entity analog_output--><g id="elem_analog_output"><ellipse cx="405" cy="570.78" fill="#F1F1F1" rx="8" ry="8" style="stroke:#181818;stroke-width:0.5;"/><text fill="#000000" font-family="sans-serif" font-size="14" lengthAdjust="spacing" textLength="183.9688" x="313.0156" y="600.7751">Pulse Analog Outout (TP1)</text></g><!--entity data_logger--><g id="elem_data_logger"><rect fill="#F1F1F1" height="46.2969" rx="2.5" ry="2.5" style="stroke:#181818;stroke-width:0.5;" width="198.9834" x="117.51" y="908.07"/><rect fill="#F1F1F1" height="10" style="stroke:#181818;stroke-width:0.5;" width="15" x="296.4934" y="913.07"/><rect fill="#F1F1F1" height="2" style="stroke:#181818;stroke-width:0.5;" width="4" x="294.4934" y="915.07"/><rect fill="#F1F1F1" height="2" style="stroke:#181818;stroke-width:0.5;" width="4" x="294.4934" y="919.07"/><text fill="#000000" font-family="sans-serif" font-size="14" lengthAdjust="spacing" textLength="158.9834" x="132.51" y="941.0651">Hardware Data Logger</text></g><!--entity oscilloscope--><g id="elem_oscilloscope"><rect fill="#F1F1F1" height="62.5938" rx="2.5" ry="2.5" style="stroke:#181818;stroke-width:0.5;" width="214.9453" x="481.53" y="899.93"/><rect fill="#F1F1F1" height="10" style="stroke:#181818;stroke-width:0.5;" width="15" x="676.4753" y="904.93"/><rect fill="#F1F1F1" height="2" style="stroke:#181818;stroke-width:0.5;" width="4" x="674.4753" y="906.93"/><rect fill="#F1F1F1" height="2" style="stroke:#181818;stroke-width:0.5;" width="4" x="674.4753" y="910.93"/><text fill="#000000" font-family="sans-serif" font-size="14" lengthAdjust="spacing" textLength="87.3018" x="496.53" y="932.9251">Oscilloscope</text><text fill="#000000" font-family="sans-serif" font-size="14" lengthAdjust="spacing" textLength="174.9453" x="496.53" y="949.222">(optional, for debugging)</text></g><!--entity sample--><g id="elem_sample"><rect fill="#F1F1F1" height="39.2969" rx="2.5" ry="2.5" style="stroke:#181818;stroke-width:0.5;" width="134.3916" x="83.8" y="15.14"/><polygon fill="#F1F1F1" points="201.1916,20.14,201.1916,34.14,213.1916,34.14,213.1916,26.14,207.1916,20.14,201.1916,20.14" style="stroke:#181818;stroke-width:0.5;"/><line style="stroke:#181818;stroke-width:0.5;" x1="207.1916" x2="207.1916" y1="20.14" y2="26.14"/><line style="stroke:#181818;stroke-width:0.5;" x1="213.1916" x2="207.1916" y1="26.14" y2="26.14"/><text fill="#000000" font-family="sans-serif" font-size="14" lengthAdjust="spacing" textLength="104.3916" x="93.8" y="41.1351">Tested Sample</text></g><!--entity power_supply--><g id="elem_power_supply"><rect fill="#F1F1F1" height="55.5938" rx="2.5" ry="2.5" style="stroke:#181818;stroke-width:0.5;" width="124.9854" x="465.51" y="7"/><polygon fill="#F1F1F1" points="573.4954,12,573.4954,26,585.4954,26,585.4954,18,579.4954,12,573.4954,12" style="stroke:#181818;stroke-width:0.5;"/><line style="stroke:#181818;stroke-width:0.5;" x1="579.4954" x2="579.4954" y1="12" y2="18"/><line style="stroke:#181818;stroke-width:0.5;" x1="585.4954" x2="579.4954" y1="18" y2="18"/><text fill="#000000" font-family="sans-serif" font-size="14" lengthAdjust="spacing" textLength="94.9854" x="475.51" y="32.9951">Power Supply</text><text fill="#000000" font-family="sans-serif" font-size="14" lengthAdjust="spacing" textLength="54.4141" x="475.51" y="49.292">(5V DC)</text></g><!--entity user--><g id="elem_user"><ellipse cx="575.9951" cy="700.28" fill="#F1F1F1" rx="8" ry="8" style="stroke:#181818;stroke-width:0.5;"/><path d="M575.9951,708.28 L575.9951,735.28 M562.9951,716.28 L588.9951,716.28 M575.9951,735.28 L562.9951,750.28 M575.9951,735.28 L588.9951,750.28 " fill="none" style="stroke:#181818;stroke-width:0.5;"/><text fill="#000000" font-family="sans-serif" font-size="14" lengthAdjust="spacing" textLength="31.9102" x="560.04" y="764.7751">User</text></g><!--link digital_outoput to data_logger--><g id="link_digital_outoput_data_logger"><path d="M217,738.5 C217,766.3 217,851.45 217,895.82 " fill="none" id="digital_outoput-to-data_logger" style="stroke:#181818;stroke-width:1.0;"/><polygon fill="none" points="217,907.82,221,901.82,217,895.82,213,901.82,217,907.82" style="stroke:#181818;stroke-width:1.0;"/></g><!--link digital_outoput to oscilloscope--><g id="link_digital_outoput_oscilloscope"><path d="M225.83,735.66 C266.76,757.58 429.3526,844.6927 520.9926,893.7927 " fill="none" id="digital_outoput-to-oscilloscope" style="stroke:#181818;stroke-width:1.0;"/><polygon fill="none" points="531.57,899.46,528.1704,893.1005,520.9926,893.7927,524.3922,900.1522,531.57,899.46" style="stroke:#181818;stroke-width:1.0;"/></g><!--link r_sense to analog_output--><g id="link_r_sense_analog_output"><path d="M234.33,342.52 C320.97,357.65 447.84,385.96 476,425.48 C510.18,473.46 444.3412,536.4718 418.5412,558.5218 " fill="none" id="r_sense-to-analog_output" style="stroke:#181818;stroke-width:1.0;"/><polygon fill="#181818" points="413.98,562.42,423.4205,559.6135,417.781,559.1715,418.2229,553.5319,413.98,562.42" style="stroke:#181818;stroke-width:1.0;"/></g><!--link analog_output to oscilloscope--><g id="link_analog_output_oscilloscope"><path d="M413.96,572.63 C452.58,576.53 604.18,593.96 632,629.78 C694.54,710.3 643.6089,830.1574 612.2589,889.0474 " fill="none" id="analog_output-to-oscilloscope" style="stroke:#181818;stroke-width:1.0;"/><polygon fill="none" points="606.62,899.64,612.9703,896.2234,612.2589,889.0474,605.9086,892.4641,606.62,899.64" style="stroke:#181818;stroke-width:1.0;"/></g><!--link power_supply to geiger_counter--><g id="link_power_supply_geiger_counter"><path d="M528,62.72 C528,74.3775 528,88.8163 528,103.9614 C528,111.534 528,119.2832 528,126.9496 C528,128.8662 528,130.7776 528,132.6798 C528,132.9176 528,127.1552 528,127.3927 " fill="none" id="power_supply-to-geiger_counter" style="stroke:#181818;stroke-width:1.0;"/><polygon fill="#181818" points="528,133.3927,532,124.3927,528,128.3927,524,124.3927,528,133.3927" style="stroke:#181818;stroke-width:1.0;"/></g><!--link sample to gm_tube--><g id="link_sample_gm_tube"><path d="M151,54.69 C151,86.88 151,145.98 151,178.3 " fill="none" id="sample-to-gm_tube" style="stroke:#181818;stroke-width:1.0;"/><polygon fill="#181818" points="151,184.3,155,175.3,151,179.3,147,175.3,151,184.3" style="stroke:#181818;stroke-width:1.0;"/><text fill="#000000" font-family="sans-serif" font-size="13" lengthAdjust="spacing" textLength="121.2783" x="152" y="105.6569">Radioactive Decay</text></g><!--reverse link gm_tube to polarization--><g id="link_gm_tube_polarization"><path d="M231.25,204.39 C242.69,204.39 248.13,204.39 259.57,204.39 " fill="none" id="gm_tube-backto-polarization" style="stroke:#181818;stroke-width:1.0;"/><polygon fill="#181818" points="225.25,204.39,234.25,208.39,230.25,204.39,234.25,200.39,225.25,204.39" style="stroke:#181818;stroke-width:1.0;"/></g><!--link gm_tube to r_sense--><g id="link_gm_tube_r_sense"><path d="M151,224.52 C151,247.52 151,279.89 151,302.83 " fill="none" id="gm_tube-to-r_sense" style="stroke:#181818;stroke-width:1.0;"/><polygon fill="#181818" points="151,308.83,155,299.83,151,303.83,147,299.83,151,308.83" style="stroke:#181818;stroke-width:1.0;"/><text fill="#000000" font-family="sans-serif" font-size="13" lengthAdjust="spacing" textLength="319.2173" x="152" y="275.2469">Pulse of current when radiation particle detected</text></g><!--link r_sense to comparator--><g id="link_r_sense_comparator"><path d="M146.98,348.96 C142.53,370.19 136.6128,398.348 132.1828,419.448 " fill="none" id="r_sense-to-comparator" style="stroke:#181818;stroke-width:1.0;"/><polygon fill="#181818" points="130.95,425.32,136.7139,417.3339,131.9774,420.4267,128.8846,415.6901,130.95,425.32" style="stroke:#181818;stroke-width:1.0;"/><text fill="#000000" font-family="sans-serif" font-size="13" lengthAdjust="spacing" textLength="189.6299" x="142" y="391.5469">Voltage pulse (analog signal)</text></g><!--link comparator to led--><g id="link_comparator_led"><path d="M215.22,445.13 C264.92,445.13 318.97,445.13 359.57,445.13 " fill="none" id="comparator-to-led" style="stroke:#181818;stroke-width:1.0;"/><polygon fill="#181818" points="365.57,445.13,356.57,441.13,360.57,445.13,356.57,449.13,365.57,445.13" style="stroke:#181818;stroke-width:1.0;"/><text fill="#000000" font-family="sans-serif" font-size="13" lengthAdjust="spacing" textLength="59.0078" x="261.0442" y="423.1969">Blinks on</text><text fill="#000000" font-family="sans-serif" font-size="13" lengthAdjust="spacing" textLength="114.5562" x="233.27" y="438.3297">particle detection</text></g><!--link comparator to out_level_selector--><g id="link_comparator_out_level_selector"><path d="M130.7,465.18 C134.72,485.91 140.0471,513.3299 144.5971,536.7799 " fill="none" id="comparator-to-out_level_selector" style="stroke:#181818;stroke-width:1.0;"/><polygon fill="#181818" points="145.74,542.67,147.9525,533.0729,144.7876,537.7615,140.0989,534.5967,145.74,542.67" style="stroke:#181818;stroke-width:1.0;"/><text fill="#000000" font-family="sans-serif" font-size="13" lengthAdjust="spacing" textLength="186.0435" x="141" y="507.8469">Voltage pulse (digital signal)</text></g><!--link out_level_selector to digital_outoput--><g id="link_out_level_selector_digital_outoput"><path d="M144.33,598.85 C141.14,617.3 139.61,641.9 148,661.78 C160.35,691.04 187.294,710.6668 202.984,720.4868 " fill="none" id="out_level_selector-to-digital_outoput" style="stroke:#181818;stroke-width:1.0;"/><polygon fill="#181818" points="208.07,723.67,202.5632,715.5045,203.8317,721.0173,198.3189,722.2859,208.07,723.67" style="stroke:#181818;stroke-width:1.0;"/><text fill="#000000" font-family="sans-serif" font-size="13" lengthAdjust="spacing" textLength="132.3105" x="205.3354" y="642.8469">Digital pulse output,</text><text fill="#000000" font-family="sans-serif" font-size="13" lengthAdjust="spacing" textLength="244.9814" x="149" y="657.9797">high-state voltage configured by user</text></g><!--reverse link out_level_selector to user--><g id="link_out_level_selector_user"><path d="M277.1687,598.5645 C333.8787,611.0945 385.93,623.51 398,629.78 C417,639.64 415.54,650.93 434,661.78 C468.9,682.28 483.74,673.78 520,691.78 C534.21,698.83 549.13,708.87 559.99,716.74 " fill="none" id="out_level_selector-backto-user" style="stroke:#181818;stroke-width:1.0;"/><polygon fill="#181818" points="271.31,597.27,279.2351,603.1175,276.1922,598.3487,280.961,595.3059,271.31,597.27" style="stroke:#181818;stroke-width:1.0;"/><text fill="#000000" font-family="sans-serif" font-size="13" lengthAdjust="spacing" textLength="192.8672" x="435" y="650.3469">Configures high-state voltage</text></g><!--SRC=[VLNVRzem47xtNt7YfLGYKYleDlLXKWVLVWWq1gnFbIAJ7C6QYJFRWNNJ_lUTxOI45CO39FRTTz_TVNTSmGGt8aUmMuIFA3BKqQoK4ZMCLPbR-ZKlnk8Ek04EYTeLAiVSma7OBHqKMkr5YYa8PxlX2RB6fdSMiEUWCdyJ9rMCFmpeux-uje9mdFSCLkKQeRzSBQExw-2tYosTNR2SAycr-CsjKFbptX_Tt3p1P3o0sNWukdap3115owY3CoRgN7EhDFIdi-7Tk-2H78yxziijqOS56c6yp-9jSD2nmTnqMKuV9z2VZ8A9nBHp_RMqHMdXIKdBCuGfxb724YKcX4tPV1iDO74x7C2NAX5LsbWwAueMhDYn2z2Rbz8WJ4GcB9VEre7tQzyqdCTqhjp5Qy-7d4kL0R5Ipd4rlmsUt9_70P2nluongxQ8y1S1aKsZ5HF4el5dANHRAgQjbKzSfmUkYJAt7AOgoogffFGUI__Ujlzg4Y6bCeagaAgZ2jTFBWUmeKwak2wpJEHPLQcMBVE4vye8vm3dmbAEARJnOOrI7NnweJZ3fo5K_VfyB5nfA214KQeEUQHOjyJrnKb25urEALU2gg_VGwSD9s-NGAxWiUuDwMNdE-CohKlNL0siKjAmHfihf1sGmfBl2ec-fCO_japcwa2LMvP58L-e7tTkykg1evlO-1l7OgoHMwptIgBodCHB30nhMy8nrSwkO27qyRvQ2N0F2vuAHMJ4djg92NzXxLc7IEB6DWwiTgo1wYBVroEWDf2KMljrjyKSDE47gCBbdH2952sHnxJNjAX2QvQ60wodkl30_T0lC2AZX-iUQnb7McHRHvCsXFFy84N-WoHC2wqJbOYSUbQHN- -5CmmguJKKpdZLW5sH4bgzLm9QqDtWETyIzyXOrzvz5O_wkn5PwGP__K8pGbFjHF2GflJtuLv9R64bE1dvJU7cxB_Ra77Fh_VTL3l2uJ0F5fN5nHACQoe6NXFj_GC0]--></g></svg>